<svg width="800" height="600" xmlns="http://www.w3.org/2000/svg">
 <!-- Created with Method Draw - http://github.com/duopixel/Method-Draw/ -->

 <g>
  <title>background</title>
  <g display="none" overflow="visible" y="0" x="0" height="100%" width="100%" id="canvasGrid">
   <rect fill="url(#gridpattern)" stroke-width="0" y="0" x="0" height="100%" width="100%"/>
  </g>
 </g>
 <g>
  <title>Layer 1</title>
  <defs>
   <linearGradient y2="1" x2="0.5" y1="0" x1="0.5" id="svg_7">
    <stop stop-color="#9FC7FF"/>
    <stop stop-color="#9BC1F5" offset="1"/>
   </linearGradient>
   <radialGradient gradientTransform="translate(17.9439 -22.6966) rotate(-90) scale(20.9574 6.69705)" gradientUnits="userSpaceOnUse" r="1" cy="0" cx="0" id="svg_6">
    <stop stop-opacity="0.4" stop-color="#486DA8"/>
    <stop stop-opacity="0" stop-color="#486DA8" offset="1"/>
   </radialGradient>
  </defs>
  <g id="svg_14">
   <path id="svg_13" fill="url(#svg_6)" d="m359.53349,51.56036c0,86.28472 69.96527,156.24999 156.24999,156.24999c78.15972,0 142.88193,-57.36111 154.40971,-132.29166c11.38889,-4.27083 23.68055,-6.59722 36.5625,-6.59722c57.53472,0 104.16666,46.63194 104.16666,104.16666c0,57.53472 -46.63194,104.16666 -104.16666,104.16666l-381.94442,0c-76.70138,0 -138.88888,-62.1875 -138.88888,-138.88888c0,-76.70138 62.1875,-138.88888 138.88888,-138.88888c14.47917,0 28.40278,2.22222 41.52777,6.31944c-4.44444,14.47917 -6.80556,29.82639 -6.80556,45.76389z"/>
   <path id="svg_15" fill="url(#svg_7)" d="m214.81127,580.25479c-76.70138,0 -138.88888,-62.1875 -138.88888,-138.88888c0,-76.70138 62.1875,-138.88888 138.88888,-138.88888c14.47916,0 28.40277,2.22222 41.52777,6.31944c19.54861,-63.95832 79.0625,-110.4861 149.44444,-110.4861c86.28471,0 156.24998,69.96527 156.24998,156.24999c0,8.15972 -0.625,16.14583 -1.84027,23.95833c11.38888,-4.27083 23.68055,-6.59722 36.56249,-6.59722c57.53472,0 104.16666,46.63194 104.16666,104.16666c0,57.53472 -46.63194,104.16666 -104.16666,104.16666l-381.94441,0z"/>
  </g>
 </g>
</svg>