<svg width="413" height="414" xmlns="http://www.w3.org/2000/svg">
 <!-- Created with Method Draw - http://github.com/duopixel/Method-Draw/ -->

 <g>
  <title>background</title>
  <g display="none" overflow="visible" y="0" x="0" height="100%" width="100%" id="canvasGrid">
   <rect fill="url(#gridpattern)" stroke-width="0" y="0" x="0" height="100%" width="100%"/>
  </g>
 </g>
 <g>
  <title>Layer 1</title>
  <!-- Created with Method Draw - http://github.com/duopixel/Method-Draw/ -->
  <g stroke="null" id="svg_57">
   <g stroke="null" transform="matrix(1.1606192187970563,0,0,1.1606192187970563,-9517.20654106557,-6247.48502566679) " id="svg_54">
    <title stroke="null" transform="translate(-62.8974609375,-9.477699279785156) translate(1.7232180833816528,0) translate(-24.986661911010742,-18.09379005432129) translate(18.955398559570312,-12.06252670288086) translate(-76.3561019897461,-6.872049331665039) translate(2.2906830310821533,0.7635610103607178) translate(517.58056640625,-387.763916015625) translate(7668.85595703125,0) translate(0,5626.6826171875) ">background</title>
    <g stroke="null" id="svg_52" display="none">
     <rect stroke="null" id="svg_55" width="640" height="480" x="8045.1656" y="5193.1762" stroke-width="0" fill="url(#gridpattern)"/>
    </g>
   </g>
   <g stroke="null" transform="matrix(1.1606192187970563,0,0,1.1606192187970563,-9517.20654106557,-6247.48502566679) " id="svg_56">
    <title stroke="null" transform="translate(-62.8974609375,-9.477699279785156) translate(1.7232180833816528,0) translate(-24.986661911010742,-18.09379005432129) translate(18.955398559570312,-12.06252670288086) translate(-76.3561019897461,-6.872049331665039) translate(2.2906830310821533,0.7635610103607178) translate(517.58056640625,-387.763916015625) translate(7668.85595703125,0) translate(0,5626.6826171875) ">Layer 1</title>
    <defs stroke="null" transform="translate(-62.8974609375,-9.477699279785156) translate(1.7232180833816528,0) translate(-24.986661911010742,-18.09379005432129) translate(18.955398559570312,-12.06252670288086) translate(-76.3561019897461,-6.872049331665039) translate(2.2906830310821533,0.7635610103607178) translate(517.58056640625,-387.763916015625) translate(7668.85595703125,0) translate(0,5626.6826171875) ">
     <linearGradient stroke="null" id="svg_50" x1="0.5" y1="0" x2="0.5" y2="1">
      <stop stroke="null" stop-color="#9FC7FF"/>
      <stop stroke="null" offset="1" stop-color="#9BC1F5"/>
     </linearGradient>
     <radialGradient stroke="null" id="svg_48" cx="0" cy="0" r="1" gradientUnits="userSpaceOnUse" gradientTransform="translate(15.0679 -22.6966) rotate(-90) scale(20.9574 6.69705)">
      <stop stroke="null" stop-color="#486DA8" stop-opacity="0.4"/>
      <stop stroke="null" offset="1" stop-color="#486DA8" stop-opacity="0"/>
     </radialGradient>
    </defs>
    <g stroke="null" id="svg_46">
     <path stroke="null" d="m8281.50159,5646.24176l-20.35334,48.44096c-3.10147,7.40474 0.36829,15.93376 7.77304,19.03522c7.40474,3.10146 15.93376,-0.3683 19.03522,-7.77304l20.35334,-48.44096c3.10146,-7.40474 -0.3683,-15.93376 -7.77304,-19.03522c-7.40474,-3.10146 -15.93376,0.3683 -19.03522,7.77304zm155.0731,0l-20.35335,48.44096c-3.10146,7.40474 0.3683,15.93376 7.77304,19.03522c7.40474,3.10146 15.93376,-0.3683 19.03522,-7.77304l20.35335,-48.44096c3.10146,-7.40474 -0.3683,-15.93376 -7.77304,-19.03522c-7.40474,-3.10146 -15.93376,0.3683 -19.03522,7.77304zm-77.53655,-19.38414l-21.40598,49.49359c39.00369,-25.22675 22.4735,-40.90819 29.87824,-37.80673c7.40474,3.10147 0.14433,8.05274 3.2458,0.648l16.14283,-1.07267c-42.16158,2.06892 -1.42093,-31.72319 -8.82567,-19.03523c-7.40474,12.68797 -12.77587,17.21036 -19.03522,7.77304z" fill="#66AFEB" id="svg_51"/>
     <path stroke="null" d="m8279.38872,5598.49863c-42.81956,0 -77.53655,-34.71699 -77.53655,-77.53655c0,-42.81956 34.71699,-77.53655 77.53655,-77.53655c8.08319,0 15.85622,1.24058 23.18343,3.52791c10.91327,-35.70558 44.13768,-61.68032 83.42933,-61.68032c48.16958,0 87.22862,39.05904 87.22862,87.22862c0,4.55527 -0.34891,9.01362 -1.02736,13.37505c6.358,-2.38425 13.21998,-3.68299 20.4115,-3.68299c32.11952,0 58.15241,26.0329 58.15241,58.15241c0,32.11952 -26.0329,58.15241 -58.15241,58.15241l-213.22551,0l-0.00001,0.00001z" fill="url(#svg_50)" id="svg_49"/>
     <path stroke="null" d="m8298.77286,5472.50174c0,48.16958 39.05904,87.22862 87.22862,87.22862c43.63369,0 79.76572,-32.02259 86.20126,-73.85356c6.358,-2.38425 13.21998,-3.68299 20.4115,-3.68299c32.11952,0 58.15241,26.0329 58.15241,58.15241c0,32.11952 -26.0329,58.15241 -58.15241,58.15241l-213.22551,0c-42.81956,0 -77.53655,-34.71699 -77.53655,-77.53655c0,-42.81956 34.71699,-77.53655 77.53655,-77.53655c8.08319,0 15.85622,1.24058 23.18343,3.52791c-2.48117,8.08319 -3.79929,16.65097 -3.79929,25.54829l-0.00001,0.00001z" fill="url(#svg_48)" id="svg_47"/>
    </g>
    <g stroke="null" id="svg_28" transform="rotate(4.553494930267334 8353.646484375005,5671.016601562505) ">
     <g stroke="null" id="svg_44" transform="rotate(10.226861000061035 8353.64648437498,5671.016601562499) matrix(0.33712530938362484,0,0,0.33712530938362484,-145.6676246110818,-206.5563669411141) ">
      <polygon stroke="null" points="25168.19564819336,17234.38476371765 25101.93978881836,17430.70312309265 25175.55892944336,17430.70312309265 25099.48471069336,17634.38476371765 25300.71322631836,17393.89452934265 25229.54721069336,17393.89452934265 25322.79721069336,17234.38476371765 " fill="#F7CF52" id="svg_45"/>
     </g>
     <g stroke="null" id="svg_43" transform="rotate(10.226861000061035 7888.51220703124,4965.009277343752) matrix(0.33712530938362484,0,0,0.33712530938362484,-145.6676246110818,-206.5563669411141) "/>
     <g stroke="null" id="svg_42" transform="rotate(10.226861000061035 7888.51220703124,4965.009277343752) matrix(0.33712530938362484,0,0,0.33712530938362484,-145.6676246110818,-206.5563669411141) "/>
     <g stroke="null" id="svg_41" transform="rotate(10.226861000061035 7888.51220703124,4965.009277343752) matrix(0.33712530938362484,0,0,0.33712530938362484,-145.6676246110818,-206.5563669411141) "/>
     <g stroke="null" id="svg_40" transform="rotate(10.226861000061035 7888.51220703124,4965.009277343752) matrix(0.33712530938362484,0,0,0.33712530938362484,-145.6676246110818,-206.5563669411141) "/>
     <g stroke="null" id="svg_39" transform="rotate(10.226861000061035 7888.51220703124,4965.009277343752) matrix(0.33712530938362484,0,0,0.33712530938362484,-145.6676246110818,-206.5563669411141) "/>
     <g stroke="null" id="svg_38" transform="rotate(10.226861000061035 7888.51220703124,4965.009277343752) matrix(0.33712530938362484,0,0,0.33712530938362484,-145.6676246110818,-206.5563669411141) "/>
     <g stroke="null" id="svg_37" transform="rotate(10.226861000061035 7888.51220703124,4965.009277343752) matrix(0.33712530938362484,0,0,0.33712530938362484,-145.6676246110818,-206.5563669411141) "/>
     <g stroke="null" id="svg_36" transform="rotate(10.226861000061035 7888.51220703124,4965.009277343752) matrix(0.33712530938362484,0,0,0.33712530938362484,-145.6676246110818,-206.5563669411141) "/>
     <g stroke="null" id="svg_35" transform="rotate(10.226861000061035 7888.51220703124,4965.009277343752) matrix(0.33712530938362484,0,0,0.33712530938362484,-145.6676246110818,-206.5563669411141) "/>
     <g stroke="null" id="svg_34" transform="rotate(10.226861000061035 7888.51220703124,4965.009277343752) matrix(0.33712530938362484,0,0,0.33712530938362484,-145.6676246110818,-206.5563669411141) "/>
     <g stroke="null" id="svg_33" transform="rotate(10.226861000061035 7888.51220703124,4965.009277343752) matrix(0.33712530938362484,0,0,0.33712530938362484,-145.6676246110818,-206.5563669411141) "/>
     <g stroke="null" id="svg_32" transform="rotate(10.226861000061035 7888.51220703124,4965.009277343752) matrix(0.33712530938362484,0,0,0.33712530938362484,-145.6676246110818,-206.5563669411141) "/>
     <g stroke="null" id="svg_31" transform="rotate(10.226861000061035 7888.51220703124,4965.009277343752) matrix(0.33712530938362484,0,0,0.33712530938362484,-145.6676246110818,-206.5563669411141) "/>
     <g stroke="null" id="svg_30" transform="rotate(10.226861000061035 7888.51220703124,4965.009277343752) matrix(0.33712530938362484,0,0,0.33712530938362484,-145.6676246110818,-206.5563669411141) "/>
     <g stroke="null" id="svg_29" transform="rotate(10.226861000061035 7888.51220703124,4965.009277343752) matrix(0.33712530938362484,0,0,0.33712530938362484,-145.6676246110818,-206.5563669411141) "/>
    </g>
   </g>
  </g>
 </g>
</svg>